<?xml version="1.0" encoding="UTF-8"?>
<!DOCTYPE svg PUBLIC "-//W3C//DTD SVG 1.1//EN" "http://www.w3.org/Graphics/SVG/1.1/DTD/svg11.dtd">
<!-- Creator: CorelDRAW 2018 (64-Bit) -->
<svg xml:space="preserve" width="140mm" height="28mm" version="1.1"
     style="shape-rendering:geometricPrecision; text-rendering:geometricPrecision; image-rendering:optimizeQuality; fill-rule:evenodd; clip-rule:evenodd"
     viewBox="6070 8300 18000 4300"
     xmlns="http://www.w3.org/2000/svg"
     xmlns:xlink="http://www.w3.org/1999/xlink">
 <defs>
  <style type="text/css">
   <![CDATA[
    .str0 {stroke:#2E4D91;stroke-width:35.11;stroke-miterlimit:10}
    .fil6 {fill:none;fill-rule:nonzero}
    .fil5 {fill:#2E4D91;fill-rule:nonzero}
    .fil3 {fill:url(#id0)}
    .fil2 {fill:url(#id1)}
    .fil0 {fill:url(#id2)}
    .fil4 {fill:url(#id3)}
    .fil1 {fill:url(#id4)}
   ]]>
  </style>

     <linearGradient id="id0" gradientUnits="userSpaceOnUse" x1="7642.41" y1="10500" x2="9409.6" y2="10500">
   <stop offset="0" style="stop-opacity:1; stop-color:#B19371"/>
         <stop offset="0.501961" style="stop-opacity:1; stop-color:#E4C09F"/>
         <stop offset="1" style="stop-opacity:1; stop-color:#BE9B7C"/>
  </linearGradient>
     <linearGradient id="id1" gradientUnits="userSpaceOnUse" x1="5930.2" y1="11205.16" x2="7843.85" y2="11205.16">
   <stop offset="0" style="stop-opacity:1; stop-color:#BE9B7C"/>
         <stop offset="0.501961" style="stop-opacity:1; stop-color:#E4C09F"/>
         <stop offset="0.870588" style="stop-opacity:1; stop-color:#B19371"/>
         <stop offset="1" style="stop-opacity:1; stop-color:#B19371"/>
  </linearGradient>
     <linearGradient id="id2" gradientUnits="userSpaceOnUse" x1="4569.65" y1="10500.01" x2="7096.06" y2="10500.01">
   <stop offset="0" style="stop-opacity:1; stop-color:#BE9B7C"/>
         <stop offset="0.501961" style="stop-opacity:1; stop-color:#E4C09F"/>
         <stop offset="1" style="stop-opacity:1; stop-color:#B19371"/>
  </linearGradient>
     <linearGradient id="id3" gradientUnits="userSpaceOnUse" x1="4930.93" y1="10216.7" x2="7977.04" y2="10216.7">
   <stop offset="0" style="stop-opacity:1; stop-color:#BE9B7C"/>
         <stop offset="0.258824" style="stop-opacity:1; stop-color:#E4C09F"/>
         <stop offset="0.65098" style="stop-opacity:1; stop-color:#B19371"/>
         <stop offset="1" style="stop-opacity:1; stop-color:#B19371"/>
  </linearGradient>
     <linearGradient id="id4" gradientUnits="userSpaceOnUse" x1="4731.08" y1="10550.82" x2="8274.4" y2="10550.82">
   <stop offset="0" style="stop-opacity:1; stop-color:#BE9B7C"/>
         <stop offset="0.109804" style="stop-opacity:1; stop-color:#BE9B7C"/>
         <stop offset="0.329412" style="stop-opacity:1; stop-color:#E4C09F"/>
         <stop offset="0.568627" style="stop-opacity:1; stop-color:#B19371"/>
         <stop offset="0.721569" style="stop-opacity:1; stop-color:#896D4F"/>
         <stop offset="0.980392" style="stop-opacity:1; stop-color:#795B40"/>
         <stop offset="1" style="stop-opacity:1; stop-color:#795B40"/>
  </linearGradient>
 </defs>
    <a xlink:href='#'>
    <g id="Слой_x0020_1">
  <metadata id="CorelCorpID_0Corel-Layer"/>
        <g id="_1902149661344">
   <g>
    <path class="fil0"
          d="M7718.61 9407.06l-183.56 -250.27 0 1343.2c0,721.6 -587.11,1308.69 -1308.67,1308.69 -721.61,0 -1308.68,-587.09 -1308.68,-1308.69 0,-721.58 587.07,-1308.66 1308.68,-1308.66 384.01,0 747.33,168.11 996.79,461.24l104.76 123.1 3.86 -3.86 0 -754.11c-321.46,-240.4 -702.69,-367.61 -1105.41,-367.61 -1020.07,0 -1849.92,829.87 -1849.92,1849.9 0,1020.02 829.85,1849.92 1849.92,1849.92 1020.01,0 1849.9,-829.9 1849.9,-1849.92 0,-396.04 -123.69,-773.97 -357.67,-1092.93z"/>
       <path class="fil1"
             d="M6226.38 12349.91c1020.01,0 1849.9,-829.9 1849.9,-1849.92l-101.67 0c0,-444.58 -166.21,-850.13 -439.56,-1158.65l0 1158.65c0,721.6 -587.11,1308.69 -1308.67,1308.69 -721.61,0 -1308.68,-587.09 -1308.68,-1308.69 0,-721.58 587.07,-1308.66 1308.68,-1308.66 384.01,0 747.33,168.11 996.79,461.24l104.76 123.1 3.86 -3.86 0 -626.06c-301.24,-246.18 -686.02,-394.03 -1105.41,-394.03 -965.56,0 -1748.26,782.74 -1748.26,1748.27l-101.66 0c0,1020.02 829.85,1849.92 1849.92,1849.92z"/>
       <path class="fil2"
             d="M6226.38 11910.31c778.89,0 1410.3,-631.42 1410.3,-1410.32l-101.63 0c0,721.6 -587.11,1308.69 -1308.67,1308.69 -721.61,0 -1308.68,-587.09 -1308.68,-1308.69l-101.65 0c0,778.9 631.42,1410.32 1410.33,1410.32z"/>
       <path class="fil3"
             d="M9384.87 12349.91c-1019.99,-0.05 -1849.82,-829.93 -1849.82,-1849.92l0 -1849.9 541.23 0 0 1849.9c0,721.6 587.09,1308.69 1308.7,1308.69l101.63 0 0 541.05 -101.63 0.18 -0.11 0z"/>
       <polygon class="fil4" points="7331.79,9017.7 5686.22,10645.06 5686.22,11415.66 7331.79,9771.87 "/>
   </g>
            <g>
    <path class="fil5"
          d="M11463.15 10751.17l-293.27 -718.09 -280.95 718.09c74.93,2.76 172.19,4.1 291.89,4.1 116.03,0 210.15,-1.34 282.33,-4.1zm868.85 737.28l-12.34 13.71c-202.85,-5.47 -325.27,-8.22 -367.28,-8.22 -168.1,0 -324.35,2.75 -468.7,8.22l-12.35 -13.71 0 -86.33 13.72 -15.09 119.24 -6.82c50.24,-2.76 75.39,-20.56 75.39,-53.47 0,-19.18 -12.84,-62.11 -38.38,-128.81l-111.02 -289.15c-126.08,-1.82 -254.88,-2.76 -386.47,-2.76 -71.22,0 -177.23,0.94 -317.89,2.76l-60.32 167.2c-45.69,126.98 -68.55,206.45 -68.55,238.43 0,34.72 21.49,55.29 64.42,61.66 23.74,3.7 70.34,7.35 139.77,10.96l13.72 13.71 0 87.71 -13.72 13.71c-169.01,-5.47 -277.74,-8.22 -326.14,-8.22 -37.47,0 -130.18,2.75 -278.2,8.22l-13.69 -12.33 0 -89.09 15.06 -13.71c94.09,-5.47 151.87,-24.19 173.39,-56.16 21.45,-31.97 102.06,-222.48 241.87,-571.47l357.68 -894.89c26.49,-69.41 66.67,-174.04 120.61,-313.82l194.56 0 726.34 1708.91c28.32,64.86 53.86,101.42 76.76,109.63 30.13,10.98 73.52,16.46 130.18,16.46l12.34 15.05 0 87.71z"/>
                <path class="fil6 str0"
                      d="M11463.15 10751.17l-293.27 -718.09 -280.95 718.09c74.93,2.76 172.19,4.1 291.89,4.1 116.03,0 210.15,-1.34 282.33,-4.1zm868.85 737.28l-12.34 13.71c-202.85,-5.47 -325.27,-8.22 -367.28,-8.22 -168.1,0 -324.35,2.75 -468.7,8.22l-12.35 -13.71 0 -86.33 13.72 -15.09 119.24 -6.82c50.24,-2.76 75.39,-20.56 75.39,-53.47 0,-19.18 -12.84,-62.11 -38.38,-128.81l-111.02 -289.15c-126.08,-1.82 -254.88,-2.76 -386.47,-2.76 -71.22,0 -177.23,0.94 -317.89,2.76l-60.32 167.2c-45.69,126.98 -68.55,206.45 -68.55,238.43 0,34.72 21.49,55.29 64.42,61.66 23.74,3.7 70.34,7.35 139.77,10.96l13.72 13.71 0 87.71 -13.72 13.71c-169.01,-5.47 -277.74,-8.22 -326.14,-8.22 -37.47,0 -130.18,2.75 -278.2,8.22l-13.69 -12.33 0 -89.09 15.06 -13.71c94.09,-5.47 151.87,-24.19 173.39,-56.16 21.45,-31.97 102.06,-222.48 241.87,-571.47l357.68 -894.89c26.49,-69.41 66.67,-174.04 120.61,-313.82l194.56 0 726.34 1708.91c28.32,64.86 53.86,101.42 76.76,109.63 30.13,10.98 73.52,16.46 130.18,16.46l12.34 15.05 0 87.71z"/>
                <path class="fil5"
                      d="M13966.91 10860.8c0,150.75 -42.97,283.7 -128.84,398.8 -74.93,101.42 -173.13,176.8 -294.63,226.14 -111.44,45.64 -244.4,68.51 -398.78,68.51 -191.84,0 -380.08,-43.85 -564.62,-131.56l-16.47 -30.15c25.61,-105.07 38.38,-254.45 38.38,-448.14l13.72 -13.71 87.7 0 12.35 13.71 0 31.53c0,51.15 5.47,118.79 16.44,202.81 32.88,58.5 91.79,108.73 176.78,150.76 88.61,43.86 180.9,65.77 276.82,65.77 180.9,0 306.07,-63.05 375.53,-189.11 35.6,-64.86 53.41,-132.02 53.41,-201.47 0,-116.93 -48.86,-200.53 -146.61,-250.76 -48.44,-24.67 -126.58,-45.24 -234.39,-61.67 -243.91,-37.45 -404.25,-84.51 -480.97,-141.18 -116.03,-85.85 -174.07,-218.79 -174.07,-398.78 0,-187.27 63.05,-336.65 189.13,-448.12 133.38,-116.94 318.84,-175.43 556.4,-175.43 213.75,0 386.42,34.28 517.97,102.79l9.63 32.88c-21.94,108.74 -35.2,239.39 -39.75,391.96l-15.1 13.69 -86.33 0 -13.68 -13.69c-2.75,-109.64 -7.33,-180.91 -13.68,-213.79 -28.33,-42.94 -77.72,-79.5 -148.03,-109.64 -74.93,-31.04 -153.03,-46.59 -234.31,-46.59 -122.45,0 -219.29,32.45 -290.59,97.3 -66.67,61.22 -100.01,140.24 -100.01,237.08 0,105.08 37.92,182.28 113.74,231.61 49.35,31.98 165.8,62.57 349.46,91.82 19.19,2.73 72.64,11.88 160.34,27.39 53.9,9.15 103.68,22.4 149.4,39.75 92.24,34.73 161.7,87.71 208.27,158.95 50.23,77.7 75.39,174.53 75.39,290.54z"/>
                <path class="fil6 str0"
                      d="M13966.91 10860.8c0,150.75 -42.97,283.7 -128.84,398.8 -74.93,101.42 -173.13,176.8 -294.63,226.14 -111.44,45.64 -244.4,68.51 -398.78,68.51 -191.84,0 -380.08,-43.85 -564.62,-131.56l-16.47 -30.15c25.61,-105.07 38.38,-254.45 38.38,-448.14l13.72 -13.71 87.7 0 12.35 13.71 0 31.53c0,51.15 5.47,118.79 16.44,202.81 32.88,58.5 91.79,108.73 176.78,150.76 88.61,43.86 180.9,65.77 276.82,65.77 180.9,0 306.07,-63.05 375.53,-189.11 35.6,-64.86 53.41,-132.02 53.41,-201.47 0,-116.93 -48.86,-200.53 -146.61,-250.76 -48.44,-24.67 -126.58,-45.24 -234.39,-61.67 -243.91,-37.45 -404.25,-84.51 -480.97,-141.18 -116.03,-85.85 -174.07,-218.79 -174.07,-398.78 0,-187.27 63.05,-336.65 189.13,-448.12 133.38,-116.94 318.84,-175.43 556.4,-175.43 213.75,0 386.42,34.28 517.97,102.79l9.63 32.88c-21.94,108.74 -35.2,239.39 -39.75,391.96l-15.1 13.69 -86.33 0 -13.68 -13.69c-2.75,-109.64 -7.33,-180.91 -13.68,-213.79 -28.33,-42.94 -77.72,-79.5 -148.03,-109.64 -74.93,-31.04 -153.03,-46.59 -234.31,-46.59 -122.45,0 -219.29,32.45 -290.59,97.3 -66.67,61.22 -100.01,140.24 -100.01,237.08 0,105.08 37.92,182.28 113.74,231.61 49.35,31.98 165.8,62.57 349.46,91.82 19.19,2.73 72.64,11.88 160.34,27.39 53.9,9.15 103.68,22.4 149.4,39.75 92.24,34.73 161.7,87.71 208.27,158.95 50.23,77.7 75.39,174.53 75.39,290.54z"/>
                <path class="fil5"
                      d="M15929.34 9568.5c-10.97,67.63 -16.94,137.51 -17.82,209.68l-2.75 228.86 -13.69 13.7 -86.36 0 -15.06 -12.33c-4.59,-116.93 -9.63,-185.46 -15.1,-205.56 -10.94,-36.53 -40.22,-58.02 -87.66,-64.43 -18.31,-2.74 -104.18,-4.09 -257.67,-4.09l-183.62 0c-1.87,31.99 -2.76,158.96 -2.76,380.97l0 778.39c0,217.45 5.93,359.05 17.82,424.85 4.59,26.5 20.07,43.38 46.6,50.69 13.72,3.67 67.13,8.22 160.34,13.7l13.72 13.72 0 91.8 -13.72 13.71c-90.45,-5.47 -231.18,-8.22 -422.1,-8.22 -195.51,0 -336.23,2.75 -422.1,8.22l-12.31 -12.33 0 -93.18 13.69 -13.72c93.2,-5.48 146.65,-10.03 160.33,-13.7 26.5,-7.31 42.02,-24.19 46.61,-50.69 11.85,-65.8 17.81,-207.4 17.81,-424.85l0 -778.39c0,-225.65 -1.37,-352.65 -4.13,-380.97l-195.93 0c-163.55,0 -259.01,5.03 -286.45,15.08 -14.61,5.46 -24.66,12.33 -30.13,20.54 -8.22,14.62 -15.1,43.85 -20.57,87.71 -6.42,48.44 -10.51,98.22 -12.35,149.38l-13.68 13.7 -86.36 0 -15.03 -13.7 -2.79 -234.35c-0.88,-65.77 -6.38,-133.83 -16.4,-204.19l12.31 -13.7c53.9,9.15 250.33,13.7 589.28,13.7l555.02 0c312.46,0 508.89,-4.55 589.28,-13.7l13.73 13.7z"/>
                <path class="fil6 str0"
                      d="M15929.34 9568.5c-10.97,67.63 -16.94,137.51 -17.82,209.68l-2.75 228.86 -13.69 13.7 -86.36 0 -15.06 -12.33c-4.59,-116.93 -9.63,-185.46 -15.1,-205.56 -10.94,-36.53 -40.22,-58.02 -87.66,-64.43 -18.31,-2.74 -104.18,-4.09 -257.67,-4.09l-183.62 0c-1.87,31.99 -2.76,158.96 -2.76,380.97l0 778.39c0,217.45 5.93,359.05 17.82,424.85 4.59,26.5 20.07,43.38 46.6,50.69 13.72,3.67 67.13,8.22 160.34,13.7l13.72 13.72 0 91.8 -13.72 13.71c-90.45,-5.47 -231.18,-8.22 -422.1,-8.22 -195.51,0 -336.23,2.75 -422.1,8.22l-12.31 -12.33 0 -93.18 13.69 -13.72c93.2,-5.48 146.65,-10.03 160.33,-13.7 26.5,-7.31 42.02,-24.19 46.61,-50.69 11.85,-65.8 17.81,-207.4 17.81,-424.85l0 -778.39c0,-225.65 -1.37,-352.65 -4.13,-380.97l-195.93 0c-163.55,0 -259.01,5.03 -286.45,15.08 -14.61,5.46 -24.66,12.33 -30.13,20.54 -8.22,14.62 -15.1,43.85 -20.57,87.71 -6.42,48.44 -10.51,98.22 -12.35,149.38l-13.68 13.7 -86.36 0 -15.03 -13.7 -2.79 -234.35c-0.88,-65.77 -6.38,-133.83 -16.4,-204.19l12.31 -13.7c53.9,9.15 250.33,13.7 589.28,13.7l555.02 0c312.46,0 508.89,-4.55 589.28,-13.7l13.73 13.7z"/>
                <path class="fil5"
                      d="M17582.02 11036.22c-20.07,133.4 -30.13,284.15 -30.13,452.23l-13.72 13.71 -996.27 -8.22c-166.3,0 -283.67,2.75 -352.21,8.22l-13.69 -13.71 0 -38.38 6.84 -16.42c67.6,-42.93 104.14,-69.91 109.65,-80.86 8.22,-17.33 13.26,-78.1 15.06,-182.28l4.09 -306.96 0 -694.79c0,-217.44 -5.89,-359.07 -17.78,-424.84 -4.58,-26.49 -20.11,-43.39 -46.6,-50.71 -13.69,-3.64 -67.13,-8.21 -160.34,-13.71l-13.68 -13.7 0 -93.18 13.68 -12.34c92.29,5.47 234.81,8.22 427.57,8.22 171.77,0 498.37,-2.75 979.87,-8.22l15.06 10.96 -17.82 152.12c-5.5,48.44 -9.59,89.55 -12.34,123.35l-9.56 127.43 -13.73 15.08 -79.47 0 -13.72 -13.71c-0.92,-124.22 -8.22,-195.03 -21.94,-212.42 -10.06,-12.78 -59.13,-22.82 -147.29,-30.14 -88.19,-7.3 -165.63,-10.95 -232.27,-10.95 -79.51,0 -159.95,3.19 -241.23,9.59 -10.09,95.92 -15.06,228.86 -15.06,398.79l0 283.67c72.18,4.57 130.63,6.84 175.44,6.84l179.49 -1.34c84.03,-0.93 131.55,-7.76 142.52,-20.58 14.64,-16.43 24.2,-78.09 28.79,-185l13.72 -13.71 84.95 0 13.69 13.71c-3.63,102.33 -5.47,195.97 -5.47,280.93 0,92.29 1.84,193.23 5.47,302.88l-13.69 12.33 -91.83 0 -13.68 -13.71c0,-105.07 -7.31,-167.39 -21.95,-187.07 -14.64,-19.63 -58.91,-32.66 -132.92,-39.07 -55.74,-4.54 -115.12,-6.84 -178.16,-6.84 -66.71,0 -128.8,2.3 -186.37,6.84l0 418c0,119.69 2.26,235.72 6.84,348.1l186.38 0c266.77,0 430.32,-10.52 490.64,-31.53 10.02,-3.65 17.32,-8.68 21.91,-15.09 9.13,-12.78 17.8,-40.17 26.02,-82.23l32.92 -169.91 13.65 -15.09 83.61 0 15.06 13.71z"/>
                <path class="fil6 str0"
                      d="M17582.02 11036.22c-20.07,133.4 -30.13,284.15 -30.13,452.23l-13.72 13.71 -996.27 -8.22c-166.3,0 -283.67,2.75 -352.21,8.22l-13.69 -13.71 0 -38.38 6.84 -16.42c67.6,-42.93 104.14,-69.91 109.65,-80.86 8.22,-17.33 13.26,-78.1 15.06,-182.28l4.09 -306.96 0 -694.79c0,-217.44 -5.89,-359.07 -17.78,-424.84 -4.58,-26.49 -20.11,-43.39 -46.6,-50.71 -13.69,-3.64 -67.13,-8.21 -160.34,-13.71l-13.68 -13.7 0 -93.18 13.68 -12.34c92.29,5.47 234.81,8.22 427.57,8.22 171.77,0 498.37,-2.75 979.87,-8.22l15.06 10.96 -17.82 152.12c-5.5,48.44 -9.59,89.55 -12.34,123.35l-9.56 127.43 -13.73 15.08 -79.47 0 -13.72 -13.71c-0.92,-124.22 -8.22,-195.03 -21.94,-212.42 -10.06,-12.78 -59.13,-22.82 -147.29,-30.14 -88.19,-7.3 -165.63,-10.95 -232.27,-10.95 -79.51,0 -159.95,3.19 -241.23,9.59 -10.09,95.92 -15.06,228.86 -15.06,398.79l0 283.67c72.18,4.57 130.63,6.84 175.44,6.84l179.49 -1.34c84.03,-0.93 131.55,-7.76 142.52,-20.58 14.64,-16.43 24.2,-78.09 28.79,-185l13.72 -13.71 84.95 0 13.69 13.71c-3.63,102.33 -5.47,195.97 -5.47,280.93 0,92.29 1.84,193.23 5.47,302.88l-13.69 12.33 -91.83 0 -13.68 -13.71c0,-105.07 -7.31,-167.39 -21.95,-187.07 -14.64,-19.63 -58.91,-32.66 -132.92,-39.07 -55.74,-4.54 -115.12,-6.84 -178.16,-6.84 -66.71,0 -128.8,2.3 -186.37,6.84l0 418c0,119.69 2.26,235.72 6.84,348.1l186.38 0c266.77,0 430.32,-10.52 490.64,-31.53 10.02,-3.65 17.32,-8.68 21.91,-15.09 9.13,-12.78 17.8,-40.17 26.02,-82.23l32.92 -169.91 13.65 -15.09 83.61 0 15.06 13.71z"/>
                <path class="fil5"
                      d="M19650 11488.45l-13.68 13.71c-6.39,0 -23.78,-0.48 -52.07,-1.37 -125.2,-4.58 -203.31,-6.85 -234.35,-6.85 -46.61,0 -120.58,2.75 -222.01,8.22 -3.67,-21.93 -21.02,-58.45 -52.07,-109.62l-339.86 -567.37 -152.12 -231.58c-19.19,-28.31 -46.14,-56.19 -80.86,-83.61l15.07 -46.59c21.02,0.91 36.54,1.37 46.6,1.37 89.53,0 159.88,-14.17 211.03,-42.49 46.6,-25.56 89.54,-70.34 128.83,-134.3 39.27,-63.94 58.92,-140.23 58.92,-228.85 0,-154.4 -57.54,-258.55 -172.65,-312.46 -54.82,-25.56 -134.76,-38.38 -239.85,-38.38 -45.69,0 -89.54,3.67 -131.52,10.97 -9.17,89.55 -13.72,242.11 -13.72,457.72l0 716.72c0,217.45 5.92,359.05 17.81,424.85 4.55,26.5 20.08,43.38 46.6,50.69 13.69,3.67 67.14,8.22 160.34,13.7l13.69 13.72 0 91.8 -12.35 13.71c-91.37,-5.47 -232.06,-8.22 -422.06,-8.22 -196.46,0 -337.12,2.75 -422.1,8.22l-13.69 -12.33 0 -93.18 13.69 -13.72c93.2,-5.48 146.65,-10.03 160.34,-13.7 26.49,-7.31 42.01,-24.19 46.6,-50.69 11.85,-65.8 17.78,-207.4 17.78,-424.85l0 -724.93c0,-217.44 -5.93,-359.07 -17.78,-424.84 -4.59,-26.49 -20.11,-43.39 -46.6,-50.71 -13.69,-3.64 -67.14,-8.21 -160.34,-13.71l-13.69 -13.7 0 -93.18 13.69 -12.34c89.5,5.47 230.22,8.22 422.1,8.22 111.44,0 201.89,-1.37 271.36,-4.1 137.93,-5.49 241.19,-8.24 309.7,-8.24 158.01,0 274.07,14.18 348.08,42.5 99.56,38.37 166.27,103.25 200.07,194.59 16.47,44.78 24.65,97.78 24.65,158.96 0,248.53 -139.77,424.84 -419.34,529 45.68,76.72 94.08,154.41 145.31,232.96l211.03 324.81c124.25,191.85 206.9,301.03 248.04,327.51 20.99,13.72 50.23,20.54 87.7,20.54l13.68 13.71 0 87.71z"/>
                <path class="fil6 str0"
                      d="M19650 11488.45l-13.68 13.71c-6.39,0 -23.78,-0.48 -52.07,-1.37 -125.2,-4.58 -203.31,-6.85 -234.35,-6.85 -46.61,0 -120.58,2.75 -222.01,8.22 -3.67,-21.93 -21.02,-58.45 -52.07,-109.62l-339.86 -567.37 -152.12 -231.58c-19.19,-28.31 -46.14,-56.19 -80.86,-83.61l15.07 -46.59c21.02,0.91 36.54,1.37 46.6,1.37 89.53,0 159.88,-14.17 211.03,-42.49 46.6,-25.56 89.54,-70.34 128.83,-134.3 39.27,-63.94 58.92,-140.23 58.92,-228.85 0,-154.4 -57.54,-258.55 -172.65,-312.46 -54.82,-25.56 -134.76,-38.38 -239.85,-38.38 -45.69,0 -89.54,3.67 -131.52,10.97 -9.17,89.55 -13.72,242.11 -13.72,457.72l0 716.72c0,217.45 5.92,359.05 17.81,424.85 4.55,26.5 20.08,43.38 46.6,50.69 13.69,3.67 67.14,8.22 160.34,13.7l13.69 13.72 0 91.8 -12.35 13.71c-91.37,-5.47 -232.06,-8.22 -422.06,-8.22 -196.46,0 -337.12,2.75 -422.1,8.22l-13.69 -12.33 0 -93.18 13.69 -13.72c93.2,-5.48 146.65,-10.03 160.34,-13.7 26.49,-7.31 42.01,-24.19 46.6,-50.69 11.85,-65.8 17.78,-207.4 17.78,-424.85l0 -724.93c0,-217.44 -5.93,-359.07 -17.78,-424.84 -4.59,-26.49 -20.11,-43.39 -46.6,-50.71 -13.69,-3.64 -67.14,-8.21 -160.34,-13.71l-13.69 -13.7 0 -93.18 13.69 -12.34c89.5,5.47 230.22,8.22 422.1,8.22 111.44,0 201.89,-1.37 271.36,-4.1 137.93,-5.49 241.19,-8.24 309.7,-8.24 158.01,0 274.07,14.18 348.08,42.5 99.56,38.37 166.27,103.25 200.07,194.59 16.47,44.78 24.65,97.78 24.65,158.96 0,248.53 -139.77,424.84 -419.34,529 45.68,76.72 94.08,154.41 145.31,232.96l211.03 324.81c124.25,191.85 206.9,301.03 248.04,327.51 20.99,13.72 50.23,20.54 87.7,20.54l13.68 13.71 0 87.71z"/>
                <path class="fil5"
                      d="M20670.98 11488.45l-12.35 13.71c-91.37,-5.47 -232.55,-8.22 -423.47,-8.22 -190.01,0 -330.73,2.75 -422.1,8.22l-12.31 -13.71 0 -91.8 13.68 -13.72c93.21,-5.48 146.65,-10.03 160.34,-13.7 26.5,-7.31 42.02,-24.19 46.6,-50.69 11.89,-65.8 17.85,-207.4 17.85,-424.85l0 -724.93c0,-217.44 -5.96,-359.07 -17.85,-424.84 -4.58,-26.49 -20.1,-43.39 -46.6,-50.71 -13.69,-3.64 -67.13,-8.21 -160.34,-13.71l-13.68 -13.7 0 -93.18 13.68 -12.34c87.74,5.47 228.39,8.22 422.1,8.22 192.76,0 333.03,-2.75 420.73,-8.22l13.72 12.34 0 93.18 -13.72 13.7c-93.21,5.5 -146.62,10.07 -160.34,13.71 -26.53,7.32 -42.02,24.22 -46.6,50.71 -11.89,65.77 -17.82,207.4 -17.82,424.84l0 724.93c0,217.45 5.93,359.05 17.82,424.85 4.58,26.5 20.07,43.38 46.6,50.69 13.72,3.67 67.13,8.22 160.34,13.7l13.72 13.72 0 91.8z"/>
                <path class="fil6 str0"
                      d="M20670.98 11488.45l-12.35 13.71c-91.37,-5.47 -232.55,-8.22 -423.47,-8.22 -190.01,0 -330.73,2.75 -422.1,8.22l-12.31 -13.71 0 -91.8 13.68 -13.72c93.21,-5.48 146.65,-10.03 160.34,-13.7 26.5,-7.31 42.02,-24.19 46.6,-50.69 11.89,-65.8 17.85,-207.4 17.85,-424.85l0 -724.93c0,-217.44 -5.96,-359.07 -17.85,-424.84 -4.58,-26.49 -20.1,-43.39 -46.6,-50.71 -13.69,-3.64 -67.13,-8.21 -160.34,-13.71l-13.68 -13.7 0 -93.18 13.68 -12.34c87.74,5.47 228.39,8.22 422.1,8.22 192.76,0 333.03,-2.75 420.73,-8.22l13.72 12.34 0 93.18 -13.72 13.7c-93.21,5.5 -146.62,10.07 -160.34,13.71 -26.53,7.32 -42.02,24.22 -46.6,50.71 -11.89,65.77 -17.82,207.4 -17.82,424.84l0 724.93c0,217.45 5.93,359.05 17.82,424.85 4.58,26.5 20.07,43.38 46.6,50.69 13.72,3.67 67.13,8.22 160.34,13.7l13.72 13.72 0 91.8z"/>
                <path class="fil5"
                      d="M21578.21 10956.74l-729.08 0 -20.57 -21.94c14.61,-23.75 32.42,-70.76 53.45,-141.16 21.03,-70.34 33.8,-119.22 38.38,-146.62l722.2 0 26.03 27.4c-35.63,60.31 -65.75,154.41 -90.41,282.32z"/>
                <path class="fil6 str0"
                      d="M21578.21 10956.74l-729.08 0 -20.57 -21.94c14.61,-23.75 32.42,-70.76 53.45,-141.16 21.03,-70.34 33.8,-119.22 38.38,-146.62l722.2 0 26.03 27.4c-35.63,60.31 -65.75,154.41 -90.41,282.32z"/>
                <path class="fil5"
                      d="M23000.71 10858.07c0,194.58 -81.1,359.29 -243.27,494.02 -162.17,134.78 -352.43,202.16 -570.76,202.16 -116.03,0 -227.51,-25.15 -334.4,-75.37 -16.44,-158.99 -38.38,-293.28 -65.76,-402.9l8.19 -19.2 68.54 -20.56 16.44 6.85c90.45,231.17 235.23,346.71 434.45,346.71 103.22,0 186.12,-33.58 248.71,-100.73 62.58,-67.14 93.87,-159.16 93.87,-276.12 0,-116.03 -34.26,-205.57 -102.76,-268.62 -64.88,-60.29 -152.16,-90.43 -261.77,-90.43 -50.27,0 -104.63,8.2 -163.08,24.67l-16.44 -17.82c20.07,-64.86 37.43,-134.32 52.1,-208.3l112.36 0c81.32,0 151.62,-29 211.03,-87.03 59.37,-58 89.08,-127.21 89.08,-207.61 0,-75.84 -26.25,-137.5 -78.81,-185.02 -52.53,-47.49 -118.08,-71.26 -196.64,-71.26 -124.25,0 -208.77,32 -253.54,95.94 -21.03,30.14 -41.1,73.55 -60.29,130.18l-15.06 45.22 -19.2 12.33 -69.88 -5.47 -13.72 -17.82 47.94 -223.38c13.72,-63.04 23.78,-124.71 30.2,-185 118.74,-89.53 268.11,-134.3 448.09,-134.3 152.58,0 274.08,37.47 364.56,112.38 85.87,73.1 128.8,168.54 128.8,286.41 0,169.92 -101.42,307.91 -304.23,413.88 102.34,0 195.05,34.72 278.2,104.14 91.33,75.83 137.05,183.18 137.05,322.05z"/>
                <path class="fil6 str0"
                      d="M23000.71 10858.07c0,194.58 -81.1,359.29 -243.27,494.02 -162.17,134.78 -352.43,202.16 -570.76,202.16 -116.03,0 -227.51,-25.15 -334.4,-75.37 -16.44,-158.99 -38.38,-293.28 -65.76,-402.9l8.19 -19.2 68.54 -20.56 16.44 6.85c90.45,231.17 235.23,346.71 434.45,346.71 103.22,0 186.12,-33.58 248.71,-100.73 62.58,-67.14 93.87,-159.16 93.87,-276.12 0,-116.03 -34.26,-205.57 -102.76,-268.62 -64.88,-60.29 -152.16,-90.43 -261.77,-90.43 -50.27,0 -104.63,8.2 -163.08,24.67l-16.44 -17.82c20.07,-64.86 37.43,-134.32 52.1,-208.3l112.36 0c81.32,0 151.62,-29 211.03,-87.03 59.37,-58 89.08,-127.21 89.08,-207.61 0,-75.84 -26.25,-137.5 -78.81,-185.02 -52.53,-47.49 -118.08,-71.26 -196.64,-71.26 -124.25,0 -208.77,32 -253.54,95.94 -21.03,30.14 -41.1,73.55 -60.29,130.18l-15.06 45.22 -19.2 12.33 -69.88 -5.47 -13.72 -17.82 47.94 -223.38c13.72,-63.04 23.78,-124.71 30.2,-185 118.74,-89.53 268.11,-134.3 448.09,-134.3 152.58,0 274.08,37.47 364.56,112.38 85.87,73.1 128.8,168.54 128.8,286.41 0,169.92 -101.42,307.91 -304.23,413.88 102.34,0 195.05,34.72 278.2,104.14 91.33,75.83 137.05,183.18 137.05,322.05z"/>
                <path class="fil5"
                      d="M24902.81 10482.56c0,-253.03 -61.23,-447.65 -183.61,-583.78 -63.99,-71.27 -143.9,-121.51 -239.82,-150.75 -91.37,-27.41 -218.83,-41.11 -382.37,-41.11 -84.95,0 -166.3,5.94 -243.92,17.82 -9.17,102.33 -13.72,349.91 -13.72,742.76l2.72 598.86c0.95,133.39 4.58,222 11,265.86 80.37,12.82 162.6,19.19 246.67,19.19 181.78,0 325.26,-26.49 430.28,-79.47 113.28,-57.58 203.31,-155.31 270.02,-293.29 68.51,-142.52 102.75,-307.86 102.75,-496.09zm420.72 -65.76c0,309.71 -100.96,566.44 -302.86,770.18 -98.67,99.59 -218.36,176.76 -359.04,231.58 -150.75,59.42 -326.64,87.25 -527.62,83.6l-483.76 -8.22c-131.55,-1.84 -240.31,0.89 -326.15,8.22l-13.72 -13.71 0 -38.38 6.85 -16.42c67.59,-42.93 104.17,-69.91 109.64,-80.86 8.22,-16.43 13.26,-77.2 15.1,-182.28l4.09 -306.96 0 -694.79c0,-217.44 -5.93,-359.07 -17.82,-424.84 -4.58,-26.49 -20.07,-43.39 -46.56,-50.71 -13.73,-3.64 -67.17,-8.21 -160.34,-13.71l-13.72 -13.7 0 -93.18 13.72 -12.34c96.8,5.47 189.09,8.22 276.79,8.22 212.9,0 404.74,-2.75 575.59,-8.22 84.95,-2.74 170.39,-4.12 256.26,-4.12 237.56,0 419.81,26.96 546.81,80.87 138.84,59.4 247.56,152.57 326.16,279.56 80.37,130.65 120.58,297.38 120.58,500.21z"/>
                <path class="fil6 str0"
                      d="M24902.81 10482.56c0,-253.03 -61.23,-447.65 -183.61,-583.78 -63.99,-71.27 -143.9,-121.51 -239.82,-150.75 -91.37,-27.41 -218.83,-41.11 -382.37,-41.11 -84.95,0 -166.3,5.94 -243.92,17.82 -9.17,102.33 -13.72,349.91 -13.72,742.76l2.72 598.86c0.95,133.39 4.58,222 11,265.86 80.37,12.82 162.6,19.19 246.67,19.19 181.78,0 325.26,-26.49 430.28,-79.47 113.28,-57.58 203.31,-155.31 270.02,-293.29 68.51,-142.52 102.75,-307.86 102.75,-496.09zm420.72 -65.76c0,309.71 -100.96,566.44 -302.86,770.18 -98.67,99.59 -218.36,176.76 -359.04,231.58 -150.75,59.42 -326.64,87.25 -527.62,83.6l-483.76 -8.22c-131.55,-1.84 -240.31,0.89 -326.15,8.22l-13.72 -13.71 0 -38.38 6.85 -16.42c67.59,-42.93 104.17,-69.91 109.64,-80.86 8.22,-16.43 13.26,-77.2 15.1,-182.28l4.09 -306.96 0 -694.79c0,-217.44 -5.93,-359.07 -17.82,-424.84 -4.58,-26.49 -20.07,-43.39 -46.56,-50.71 -13.73,-3.64 -67.17,-8.21 -160.34,-13.71l-13.72 -13.7 0 -93.18 13.72 -12.34c96.8,5.47 189.09,8.22 276.79,8.22 212.9,0 404.74,-2.75 575.59,-8.22 84.95,-2.74 170.39,-4.12 256.26,-4.12 237.56,0 419.81,26.96 546.81,80.87 138.84,59.4 247.56,152.57 326.16,279.56 80.37,130.65 120.58,297.38 120.58,500.21z"/>
   </g>
  </g>
    </g></a>
</svg>
